<?xml version="1.0" standalone="no"?>
<!DOCTYPE svg PUBLIC "-//W3C//DTD SVG 20010904//EN"
 "http://www.w3.org/TR/2001/REC-SVG-20010904/DTD/svg10.dtd">
<svg version="1.0" xmlns="http://www.w3.org/2000/svg"
 width="565.000000pt" height="565.000000pt" viewBox="0 0 565.000000 565.000000"
 preserveAspectRatio="xMidYMid meet">
<metadata>
Created by potrace 1.11, written by Peter Selinger 2001-2013
</metadata>
<g transform="translate(0.000000,565.000000) scale(0.100000,-0.100000)"
fill="#000000" stroke="none">
<path d="M2634 5490 c-1160 -85 -2132 -904 -2408 -2030 -59 -239 -71 -345 -71
-635 0 -263 6 -335 46 -535 209 -1044 1041 -1876 2090 -2089 195 -40 369 -54
599 -48 295 8 513 45 775 132 895 298 1564 1042 1769 1968 56 254 75 606 47
857 -70 614 -336 1166 -771 1600 -426 427 -955 687 -1551 764 -148 19 -385 26
-525 16z"/>
</g>
</svg>
